<?xml version="1.0" standalone="no"?>
<!DOCTYPE svg PUBLIC "-//W3C//DTD SVG 20010904//EN"
 "http://www.w3.org/TR/2001/REC-SVG-20010904/DTD/svg10.dtd">
<svg version="1.0" xmlns="http://www.w3.org/2000/svg"
 width="800.000000pt" height="800.000000pt" viewBox="0 0 800.000000 800.000000"
 preserveAspectRatio="xMidYMid meet">
<metadata>
Created by potrace 1.14, written by Peter Selinger 2001-2017
</metadata>
<g transform="translate(0.000000,800.000000) scale(0.100000,-0.100000)"
fill="#000000" stroke="none">
<path d="M0 4000 l0 -4000 4000 0 4000 0 0 4000 0 4000 -4000 0 -4000 0 0
-4000z m4356 3045 c360 -38 664 -126 999 -290 326 -159 580 -340 836 -595 500
-499 803 -1106 894 -1794 8 -61 15 -113 15 -118 0 -4 115 -8 255 -8 281 0 317
-6 355 -60 26 -36 26 -99 0 -150 -30 -58 -687 -999 -729 -1043 -62 -65 -144
-72 -214 -17 -31 24 -732 1026 -753 1075 -30 73 -6 146 60 176 37 17 70 19
334 19 l294 0 -7 53 c-26 207 -79 439 -140 603 -90 246 -275 572 -435 770 -94
116 -261 284 -374 377 -535 444 -1188 658 -1879 617 -369 -22 -671 -100 -992
-254 -330 -159 -589 -352 -853 -634 -126 -135 -165 -159 -247 -150 -142 17
-212 178 -129 299 45 66 314 338 420 425 503 415 1065 648 1704 708 107 10
457 4 586 -9z m-926 -1848 l0 -94 -108 -7 c-179 -10 -242 -39 -272 -123 -9
-27 -15 -137 -20 -368 -8 -355 -12 -389 -65 -470 -45 -68 -130 -110 -298 -144
l-89 -17 74 -14 c165 -29 271 -82 314 -156 51 -87 56 -120 63 -429 6 -266 8
-294 28 -337 12 -25 33 -54 48 -64 39 -26 136 -44 238 -44 l87 0 0 -102 0
-101 -137 7 c-336 17 -449 79 -498 276 -12 47 -19 140 -24 335 -9 319 -17 352
-105 440 -68 68 -117 84 -278 92 l-128 6 0 94 0 93 98 0 c239 0 334 47 388
190 14 37 19 100 24 370 8 351 14 395 68 493 14 27 41 60 59 74 76 59 220 90
416 92 l117 1 0 -93z m1437 83 c167 -23 264 -73 308 -160 51 -102 57 -142 64
-490 7 -304 9 -329 30 -382 51 -132 151 -178 384 -178 l97 0 0 -93 0 -94 -127
-6 c-162 -8 -211 -24 -279 -92 -88 -88 -96 -121 -105 -440 -5 -195 -12 -288
-24 -335 -49 -197 -162 -259 -498 -276 l-137 -7 0 101 0 102 88 0 c101 0 198
18 237 44 15 10 36 39 48 64 19 43 22 72 28 332 4 157 12 305 19 330 38 149
137 221 358 260 l74 14 -88 17 c-221 45 -300 101 -344 244 -8 26 -15 159 -20
370 -4 203 -11 344 -19 366 -26 83 -95 115 -273 125 l-108 7 0 94 0 93 104 0
c58 0 140 -5 183 -10z m-3594 -287 c12 -10 27 -25 34 -33 35 -41 699 -991 719
-1029 36 -66 33 -122 -8 -166 -45 -48 -93 -55 -411 -55 l-257 0 6 -42 c22
-158 38 -246 60 -338 86 -350 276 -734 508 -1030 86 -110 356 -374 466 -456
383 -286 777 -454 1235 -526 117 -18 182 -22 400 -22 294 0 438 17 679 78 498
128 988 427 1328 810 125 142 185 173 279 144 92 -27 146 -118 128 -215 -13
-68 -44 -108 -224 -288 -282 -284 -546 -471 -905 -644 -498 -239 -1030 -328
-1615 -270 -689 67 -1390 417 -1893 944 -456 477 -762 1108 -832 1715 -6 52
-13 105 -16 117 -4 21 -7 21 -266 25 -225 3 -268 6 -298 21 -70 34 -89 115
-47 198 31 61 701 1011 737 1046 55 52 142 60 193 16z"/>
</g>
</svg>
